<?xml version="1.0" encoding="utf-8"?>
<!-- Generator: Adobe Illustrator 23.0.2, SVG Export Plug-In . SVG Version: 6.00 Build 0)  -->
<svg version="1.1" id="Layer_1" xmlns="http://www.w3.org/2000/svg" xmlns:xlink="http://www.w3.org/1999/xlink" x="0px" y="0px"
	 viewBox="0 0 351.91 156.71" style="enable-background:new 0 0 351.91 156.71;" xml:space="preserve">
<style type="text/css">
	.st0{fill:#414042;}
	.st1{fill:#FF6600;}
</style>
<g>
	<g>
		<path class="st0" d="M65.19,67.03c0,12.61-6.57,15.98-21.58,15.98c-12.52,0-19.53-0.09-27.79-0.71V21.04
			c7.46-0.62,13.85-0.71,24.95-0.71c16.51,0,22.37,3.37,22.37,15.98c0,8.79-3.11,13.23-10.92,13.94v0.53
			C61.82,51.58,65.19,57.27,65.19,67.03z M39.89,32.05h-7.72v13.41h8.17c5.42,0,6.93-1.33,6.93-6.84
			C47.26,33.29,45.66,32.05,39.89,32.05z M48.5,63.75c0-6.48-1.6-8.08-7.99-8.08h-8.35v15.63h8.52C46.9,71.29,48.5,69.87,48.5,63.75
			z"/>
		<path class="st0" d="M113.4,69.79l1.42,9.86c-5.77,2.93-13.32,3.73-20.51,3.73c-17.67,0-24.15-7.37-24.15-22.91
			c0-17.4,6.66-23.53,23.88-23.53c15.89,0,21.93,5.33,22.02,15.63c0.09,8.08-4,11.9-15.45,11.9H87.39c0.71,4.97,3.02,6.39,8.7,6.39
			C99.91,70.85,106.48,70.58,113.4,69.79z M87.12,56.11h8.97c3.82,0,4.44-1.15,4.44-3.91c0-3.46-1.6-4.35-6.04-4.35
			C89.07,47.77,87.39,49.01,87.12,56.11z"/>
		<path class="st0" d="M185.23,22.19l-1.24,12.25c-6.04-0.18-9.94-0.27-18.11-0.27c-7.28,0-9.32,3.73-9.32,17.49
			c0,13.76,2.04,17.49,9.32,17.49c8.61,0,13.67-0.09,19.36-0.71l1.33,12.16c-5.95,2.04-11.45,2.75-20.69,2.75
			c-19.62,0-26.81-8.35-26.81-31.7s7.19-31.7,26.81-31.7C175.02,19.98,179.37,20.6,185.23,22.19z"/>
		<path class="st0" d="M234.94,54.16V82.3h-12.79l-1.51-6.48c-3.02,3.73-8.08,7.64-15.72,7.64c-8.26,0-14.83-4.35-14.83-12.61v-4.44
			c0-7.01,5.33-11.28,14.12-11.28h14.65v-1.06c-0.09-3.73-1.51-5.06-6.13-5.06c-4.44,0-11.54,0.18-18.91,0.62l-1.42-10.48
			c6.57-1.24,17.67-2.22,24.15-2.22C228.46,36.93,234.94,41.02,234.94,54.16z M210.26,72.09c2.57,0,5.68-1.15,8.61-3.11v-5.42h-9.23
			c-2.66,0.09-3.73,1.42-3.73,3.46v1.51C205.91,70.85,207.24,72.09,210.26,72.09z"/>
		<path class="st0" d="M282.18,38.8l-0.98,9.77c-5.86-0.09-11.81-0.09-17.23-0.09c-6.39,0-7.46-0.09-7.46,1.86
			c0,1.78,1.24,1.78,5.42,2.93l10.65,2.84c7.72,2.13,11.36,5.42,11.36,13.05c0,11.1-6.04,14.12-20.87,14.12
			c-3.82,0-12.34-0.18-21.49-1.69l0.98-9.77c2.66,0,9.41,0.09,15.54,0.09c8.61,0,10.21-0.27,10.21-2.31c0-1.78-1.51-1.78-5.95-3.11
			l-10.3-2.84c-9.15-2.57-11.19-7.01-11.19-13.94c0-8.52,4.97-12.79,19.71-12.79C267.35,37.02,276.67,37.73,282.18,38.8z"/>
		<path class="st0" d="M335.36,49.28V82.3H319.2V54.34c0-2.84-0.98-3.73-3.64-3.73c-2.66,0-5.33,0.53-9.5,2.31V82.3H289.9V20.15
			h16.16l0.09,14.12c0,3.37-0.36,6.84-0.89,9.5c5.68-4.44,11.72-6.84,17.31-6.84C330.92,36.93,335.36,41.2,335.36,49.28z"/>
	</g>
</g>
<rect x="15.83" y="97.77" class="st1" width="321.29" height="41.65"/>
</svg>
