<?xml version="1.0" encoding="utf-8"?>
<!-- Generator: Adobe Illustrator 23.0.2, SVG Export Plug-In . SVG Version: 6.00 Build 0)  -->
<svg version="1.1" id="Layer_1" xmlns="http://www.w3.org/2000/svg" xmlns:xlink="http://www.w3.org/1999/xlink" x="0px" y="0px"
	 viewBox="0 0 351.91 173.39" style="enable-background:new 0 0 351.91 173.39;" xml:space="preserve">
<style type="text/css">
	.st0{fill:#414042;}
	.st1{fill:#FF6600;}
</style>
<g>
	<path class="st0" d="M317.9,55.01c-2.13-0.03-3.97-0.53-5.52-1.51c-1.51-0.98-2.86-2.21-4.05-3.69l-6.67-7.87
		c-0.45-0.39-0.76-0.36-0.93,0.09v10.19c0.09,1.9-0.8,2.85-2.67,2.85c-1.78,0.06-2.65-0.89-2.62-2.85V38.9
		c-0.18-1.87,0.82-2.7,2.98-2.49h2.49c1.75,0,2.95,0.46,3.6,1.38l7.38,8.59c1.93,2.31,3.85,3.38,5.78,3.2
		c2.99-0.09,4.54-1.47,4.63-4.14c0.06-1.72-0.77-2.98-2.49-3.78l-1.51-0.45c-1.6-0.39-2.39-1.22-2.36-2.49
		c-0.03-1.66,0.71-2.58,2.22-2.76c2.64,0.06,4.85,0.98,6.63,2.76c1.75,1.78,2.67,4.06,2.76,6.85c-0.06,2.97-0.98,5.28-2.76,6.94
		C322.99,54.15,320.69,54.98,317.9,55.01h0.04H317.9z"/>
	<path class="st0" d="M299.57,76.53c-2.85-1.81-4.3-4.26-4.36-7.34c0.03-3.11,1.47-5.53,4.32-7.25c2.85-1.75,6.78-2.64,11.79-2.67
		c5.01,0.06,8.96,0.99,11.83,2.8c2.88,1.81,4.34,4.26,4.4,7.34c-0.06,3.11-1.53,5.53-4.4,7.25c-2.88,1.72-6.82,2.59-11.83,2.62
		C306.33,79.26,302.42,78.34,299.57,76.53z M311.32,73.9c3.47,0,6.2-0.37,8.18-1.11c1.99-0.74,3-1.9,3.02-3.47
		c-0.03-1.57-1.04-2.74-3.02-3.51c-1.99-0.77-4.72-1.16-8.18-1.16c-3.35,0-6.02,0.37-8.01,1.11c-2.02,0.74-3.05,1.93-3.11,3.56
		c0.06,1.6,1.1,2.77,3.11,3.51C305.3,73.58,307.96,73.93,311.32,73.9h0.04H311.32z"/>
	<path class="st0" d="M298.37,91.2c-2.05-0.03-3.05-0.93-3.02-2.71c0.03-1.84,1.04-2.71,3.02-2.62h21.75
		c0.62-0.06,1.19-0.3,1.69-0.71c0.5-0.42,1.17-0.65,2-0.71c0.98,0.03,1.81,0.49,2.49,1.38c0.71,0.92,1.08,2,1.11,3.25
		c-0.24,1.51-1.1,2.22-2.58,2.14H298.37h0.04H298.37z"/>
	<path class="st0" d="M324.53,100.04c1.96,1.84,2.98,4.18,3.07,7.03c-0.06,3.08-1.07,5.59-3.02,7.52c-1.96,1.9-4.63,2.88-8.01,2.94
		c-7.47-0.24-14.34-4.37-20.6-12.41c-0.59-0.74-0.87-1.44-0.84-2.09c0.03-0.62,0.3-1.17,0.8-1.65c0.5-0.5,1.07-0.77,1.69-0.8
		c0.86,0.03,1.76,0.68,2.71,1.96c1.81,2.4,4.32,4.76,7.52,7.07c0.33,0.12,0.47,0.01,0.44-0.31c-0.44-0.98-0.67-2.02-0.67-3.11
		c0.03-2.55,0.9-4.67,2.62-6.36c1.72-1.72,4.05-2.61,6.98-2.67C320.14,97.2,322.57,98.17,324.53,100.04z M317.32,102.35
		c-1.39,0-2.55,0.43-3.47,1.29c-0.92,0.86-1.39,2.08-1.42,3.65c0.03,1.45,0.52,2.62,1.47,3.51c0.95,0.86,2.16,1.31,3.65,1.34
		c3.14-0.21,4.83-1.85,5.07-4.94c-0.03-1.51-0.55-2.7-1.56-3.56C320.08,102.81,318.83,102.38,317.32,102.35h0.04H317.32z"/>
</g>
<g>
	<g>
		<path class="st0" d="M67.7,59.82c0,10.11-5.27,12.81-17.29,12.81c-10.03,0-15.66-0.07-22.28-0.57V22.95
			c5.98-0.5,11.1-0.57,20-0.57c13.24,0,17.93,2.7,17.93,12.81c0,7.05-2.49,10.6-8.75,11.17v0.43C65,47.43,67.7,51.99,67.7,59.82z
			 M47.42,31.78h-6.19v10.75h6.55c4.34,0,5.55-1.07,5.55-5.48C53.33,32.77,52.05,31.78,47.42,31.78z M54.32,57.18
			c0-5.2-1.28-6.48-6.4-6.48h-6.69v12.53h6.83C53.04,63.23,54.32,62.1,54.32,57.18z"/>
		<path class="st0" d="M106.34,62.02l1.14,7.9c-4.63,2.35-10.67,2.99-16.44,2.99c-14.16,0-19.36-5.91-19.36-18.36
			c0-13.95,5.34-18.86,19.14-18.86c12.74,0,17.58,4.27,17.65,12.53c0.07,6.48-3.2,9.54-12.38,9.54h-10.6
			c0.57,3.99,2.42,5.12,6.97,5.12C95.53,62.88,100.79,62.66,106.34,62.02z M85.28,51.06h7.19c3.06,0,3.56-0.93,3.56-3.13
			c0-2.78-1.28-3.49-4.84-3.49C86.84,44.37,85.49,45.37,85.28,51.06z"/>
		<path class="st0" d="M163.91,23.88l-1,9.82c-4.84-0.14-7.97-0.21-14.52-0.21c-5.84,0-7.47,2.99-7.47,14.02
			c0,11.03,1.64,14.02,7.47,14.02c6.9,0,10.96-0.07,15.51-0.57l1.07,9.75c-4.77,1.64-9.18,2.21-16.58,2.21
			c-15.73,0-21.49-6.69-21.49-25.41s5.76-25.41,21.49-25.41C155.73,22.1,159.22,22.6,163.91,23.88z"/>
		<path class="st0" d="M203.76,49.5v22.56h-10.25l-1.21-5.2c-2.42,2.99-6.48,6.12-12.6,6.12c-6.62,0-11.88-3.49-11.88-10.11v-3.56
			c0-5.62,4.27-9.04,11.31-9.04h11.74v-0.85c-0.07-2.99-1.21-4.06-4.91-4.06c-3.56,0-9.25,0.14-15.16,0.5l-1.14-8.4
			c5.27-1,14.16-1.78,19.36-1.78C198.57,35.69,203.76,38.97,203.76,49.5z M183.98,63.87c2.06,0,4.55-0.93,6.9-2.49v-4.34h-7.4
			c-2.14,0.07-2.99,1.14-2.99,2.78v1.21C180.49,62.88,181.56,63.87,183.98,63.87z"/>
		<path class="st0" d="M241.62,37.19l-0.78,7.83c-4.7-0.07-9.47-0.07-13.81-0.07c-5.12,0-5.98-0.07-5.98,1.49
			c0,1.42,1,1.42,4.34,2.35l8.54,2.28c6.19,1.71,9.11,4.34,9.11,10.46c0,8.9-4.84,11.32-16.72,11.32c-3.06,0-9.89-0.14-17.22-1.35
			l0.78-7.83c2.13,0,7.54,0.07,12.45,0.07c6.9,0,8.18-0.21,8.18-1.85c0-1.42-1.21-1.42-4.77-2.49l-8.26-2.28
			c-7.33-2.06-8.97-5.62-8.97-11.17c0-6.83,3.99-10.25,15.8-10.25C229.74,35.76,237.21,36.33,241.62,37.19z"/>
		<path class="st0" d="M284.25,45.58v26.47h-12.95V49.64c0-2.28-0.78-2.99-2.92-2.99c-2.13,0-4.27,0.43-7.61,1.85v23.56h-12.95
			V22.24h12.95l0.07,11.32c0,2.7-0.29,5.48-0.71,7.61c4.55-3.56,9.39-5.48,13.88-5.48C280.69,35.69,284.25,39.11,284.25,45.58z"/>
	</g>
</g>
<rect x="28.13" y="84.45" class="st1" width="257.53" height="33.39"/>
<g>
	<path class="st0" d="M39.77,145.55h-7.4l-1.36,4.46h-2.26l6.28-18.92l2.12-0.25l6.34,19.03l-2.28,0.27L39.77,145.55z M36.07,133.54
		l-3.13,10.2h6.28L36.07,133.54z"/>
	<path class="st0" d="M51.91,131.28c1.52-0.33,3.4-0.63,5.17-0.63c3.62,0,6.99,1.17,6.99,5.47c0,2.45-1.36,3.83-3.24,4.13
		c1.9,0.19,4.02,1.55,4.02,4.62c0,3.7-2.18,5.14-6.31,5.14h-6.63V131.28z M57.76,139.46c1.82,0,4.24-0.22,4.24-3.15
		c0-3.05-2.26-3.81-4.89-3.81c-1.06,0-2.18,0.16-3.1,0.35v6.61H57.76z M56.48,148.17c4.19,0,6.17-0.25,6.17-3.51
		c0-2.88-2.23-3.34-4.65-3.34h-4v6.85H56.48z"/>
	<path class="st0" d="M67.68,132.26c0-0.82,0.49-1.17,1.31-1.17s1.31,0.35,1.31,1.17s-0.49,1.17-1.31,1.17
		S67.68,133.07,67.68,132.26z M68.5,150.01c-0.44-1.36-0.52-2.99-0.52-4.84v-8.92l2.01-0.27v9.3c0,1.6,0.05,3.24,0.44,4.73H68.5z"/>
	<path class="st0" d="M75.21,143.3v-5.6h-2.39v-1.71h2.39v-4.27l2.01-0.27v4.54h3.13l-0.19,1.71h-2.94v6.17
		c0,2.39,0.03,3.75,1.77,5.41l-1.36,1.14C75.38,148.63,75.21,146.37,75.21,143.3z"/>
	<path class="st0" d="M88.02,150.34c-4.08,0-5.96-2.26-5.96-7.34c0-5.08,1.88-7.34,5.96-7.34c1.44,0,2.64,0.25,3.75,0.87l-0.76,1.58
		c-0.95-0.49-1.99-0.65-2.99-0.65c-2.83,0-3.92,1.33-3.92,5.55c0,4.21,1.09,5.55,3.92,5.55c1.01,0,2.04-0.16,2.99-0.65l0.76,1.58
		C90.66,150.1,89.46,150.34,88.02,150.34z"/>
	<path class="st0" d="M94.16,143c0-5,1.74-7.34,6.12-7.34s6.12,2.34,6.12,7.34c0,5-1.74,7.34-6.12,7.34S94.16,148,94.16,143z
		 M104.36,143c0-3.51-0.6-5.63-4.08-5.63s-4.08,2.12-4.08,5.63s0.6,5.63,4.08,5.63S104.36,146.51,104.36,143z"/>
	<path class="st0" d="M109.74,132.26c0-0.82,0.49-1.17,1.31-1.17s1.31,0.35,1.31,1.17s-0.49,1.17-1.31,1.17
		S109.74,133.07,109.74,132.26z M110.55,150.01c-0.44-1.36-0.52-2.99-0.52-4.84v-8.92l2.01-0.27v9.3c0,1.6,0.05,3.24,0.44,4.73
		H110.55z"/>
	<path class="st0" d="M125.26,150.01v-7.67c0-3.07-0.16-5-3.1-5c-2.04,0-3.05,1.03-3.94,2.83v9.84h-2.01v-8.95
		c0-1.69-0.11-3.37-0.49-4.87l1.69-0.38c0.24,0.68,0.44,1.39,0.57,2.09c0.84-1.47,2.26-2.26,4.57-2.26c4.05,0,4.73,3.02,4.73,6.31
		v8.05H125.26z"/>
	<path class="st0" d="M149.27,149.12c-1.5,1.01-3.43,1.22-5.36,1.22c-4.38,0-7.45-2.26-7.45-9.84c0-7.59,3.07-9.84,7.45-9.84
		c1.93,0,3.86,0.22,5.36,1.22l-0.84,1.77c-1.39-0.82-2.88-1.09-4.4-1.09c-3.32,0-5.44,1.28-5.44,7.94c0,6.66,2.12,7.94,5.44,7.94
		c1.52,0,3.02-0.27,4.4-1.09L149.27,149.12z"/>
	<path class="st0" d="M160.74,148.08c-0.84,1.47-2.26,2.26-4.57,2.26c-3.21,0-4.76-1.09-4.76-4.13c0-2.75,2.15-4.08,9.08-4.38v-0.33
		c0-3.1-1.58-4.05-3.53-4.05c-1.36,0-2.69,0.3-3.92,0.9l-0.65-1.63c1.39-0.73,2.91-1.06,4.57-1.06c2.99,0,5.55,1.5,5.55,5.63v3.64
		c0,1.69,0.11,3.37,0.49,4.87l-1.69,0.38C161.07,149.5,160.88,148.79,160.74,148.08z M160.49,143.49c-4.7,0.22-7.1,0.9-7.1,2.72
		c0,1.69,0.57,2.47,3.15,2.47c2.04,0,3.05-1.06,3.94-2.86V143.49z"/>
	<path class="st0" d="M170.82,148.6c1.85,0,2.96-0.49,2.96-2.17c0-1.55-0.95-1.82-3.1-2.45c-2.37-0.65-4.57-1.39-4.57-4.51
		c0-2.64,2.07-3.81,4.6-3.81c1.55,0,2.99,0.22,4.27,0.92l-0.68,1.58c-0.95-0.52-2.15-0.76-3.43-0.76c-1.6,0-2.8,0.33-2.8,2.18
		c0,1.52,1.39,1.99,3.15,2.47c2.15,0.6,4.51,1.2,4.51,4.16c0,2.99-1.85,4.13-4.81,4.13c-2.01,0-3.78-0.33-5.22-1.22l0.65-1.6
		C167.64,148.25,169.19,148.6,170.82,148.6z"/>
	<path class="st0" d="M187.87,150.01v-7.67c0-3.07-0.16-5-3.1-5c-2.04,0-3.04,1.03-3.94,2.83v9.84h-2.01v-19.25l2.01-0.27v7.21
		c0.79-1.36,2.15-2.04,4.32-2.04c4.05,0,4.73,3.02,4.73,6.31v8.05H187.87z"/>
	<path class="st0" d="M211.88,149.12c-1.5,1.01-3.43,1.22-5.36,1.22c-4.38,0-7.45-2.26-7.45-9.84c0-7.59,3.07-9.84,7.45-9.84
		c1.93,0,3.86,0.22,5.36,1.22l-0.84,1.77c-1.39-0.82-2.88-1.09-4.41-1.09c-3.32,0-5.44,1.28-5.44,7.94c0,6.66,2.12,7.94,5.44,7.94
		c1.52,0,3.02-0.27,4.41-1.09L211.88,149.12z"/>
	<path class="st0" d="M213.88,143c0-5,1.74-7.34,6.12-7.34s6.12,2.34,6.12,7.34c0,5-1.74,7.34-6.12,7.34S213.88,148,213.88,143z
		 M224.08,143c0-3.51-0.6-5.63-4.08-5.63s-4.08,2.12-4.08,5.63s0.6,5.63,4.08,5.63S224.08,146.51,224.08,143z"/>
	<path class="st0" d="M238.65,150.01v-7.67c0-3.07-0.16-5-3.1-5c-2.04,0-3.05,1.03-3.94,2.83v9.84h-2.01v-8.95
		c0-1.69-0.11-3.37-0.49-4.87l1.69-0.38c0.25,0.68,0.44,1.39,0.57,2.09c0.84-1.47,2.26-2.26,4.57-2.26c4.05,0,4.73,3.02,4.73,6.31
		v8.05H238.65z"/>
	<path class="st0" d="M245.53,150.01v-12.05h-2.39v-1.71h2.34c-0.11-0.65-0.19-1.33-0.19-1.96c0-2.37,0.95-4.13,4-4.13
		c0.57,0,1.14,0.08,1.66,0.22l-0.33,1.71c-0.38-0.11-0.79-0.16-1.14-0.16c-1.85,0-2.26,0.79-2.26,2.5c0,0.54,0.05,1.25,0.22,1.82
		h3.26l-0.19,1.71h-2.96v12.05H245.53z"/>
	<path class="st0" d="M258.77,150.34c-3.7,0-6.12-1.52-6.12-7.34c0-6.09,2.8-7.34,5.85-7.34c3.53,0,5.57,1.69,5.57,7.67v0.25
		l-9.35,0.76c0.08,3.29,1.55,4.3,4.05,4.3c1.44,0,2.69-0.33,3.97-1.09l0.73,1.55C262.06,150.01,260.45,150.34,258.77,150.34z
		 M262.09,142.05c-0.05-3.54-1.39-4.68-3.59-4.68c-2.37,0-3.83,1.3-3.83,5.08v0.3L262.09,142.05z"/>
	<path class="st0" d="M267.47,150.01v-8.95c0-1.69-0.11-3.37-0.49-4.87l1.69-0.38c0.27,0.73,0.49,1.58,0.65,2.42
		c0.76-1.55,2.04-2.42,4.21-2.58l0.27,2.18c-2.23,0.03-3.54,0.98-4.32,2.99v9.19H267.47z"/>
	<path class="st0" d="M281.85,150.34c-3.7,0-6.12-1.52-6.12-7.34c0-6.09,2.8-7.34,5.85-7.34c3.53,0,5.57,1.69,5.57,7.67v0.25
		l-9.35,0.76c0.08,3.29,1.55,4.3,4.05,4.3c1.44,0,2.69-0.33,3.97-1.09l0.73,1.55C285.14,150.01,283.53,150.34,281.85,150.34z
		 M285.17,142.05c-0.05-3.54-1.39-4.68-3.59-4.68c-2.37,0-3.83,1.3-3.83,5.08v0.3L285.17,142.05z"/>
	<path class="st0" d="M299.6,150.01v-7.67c0-3.07-0.16-5-3.1-5c-2.04,0-3.05,1.03-3.94,2.83v9.84h-2.01v-8.95
		c0-1.69-0.11-3.37-0.49-4.87l1.69-0.38c0.25,0.68,0.44,1.39,0.57,2.09c0.84-1.47,2.26-2.26,4.57-2.26c4.05,0,4.73,3.02,4.73,6.31
		v8.05H299.6z"/>
	<path class="st0" d="M310.86,150.34c-4.08,0-5.96-2.26-5.96-7.34c0-5.08,1.88-7.34,5.96-7.34c1.44,0,2.64,0.25,3.75,0.87
		l-0.76,1.58c-0.95-0.49-1.99-0.65-2.99-0.65c-2.83,0-3.92,1.33-3.92,5.55c0,4.21,1.09,5.55,3.92,5.55c1.01,0,2.04-0.16,2.99-0.65
		l0.76,1.58C313.49,150.1,312.3,150.34,310.86,150.34z"/>
	<path class="st0" d="M323.12,150.34c-3.7,0-6.12-1.52-6.12-7.34c0-6.09,2.8-7.34,5.85-7.34c3.53,0,5.57,1.69,5.57,7.67v0.25
		l-9.35,0.76c0.08,3.29,1.55,4.3,4.05,4.3c1.44,0,2.69-0.33,3.97-1.09l0.73,1.55C326.41,150.01,324.8,150.34,323.12,150.34z
		 M326.43,142.05c-0.05-3.54-1.39-4.68-3.59-4.68c-2.37,0-3.83,1.3-3.83,5.08v0.3L326.43,142.05z"/>
</g>
</svg>
